<?xml version="1.0" encoding="UTF-8"?>
<svg xmlns="http://www.w3.org/2000/svg" xmlns:xlink="http://www.w3.org/1999/xlink" width="50pt" height="50pt" viewBox="0 0 50 50" version="1.1">
<g id="surface1">
<path style=" stroke:none;fill-rule:nonzero;fill:rgb(74.117647%,74.117647%,74.117647%);fill-opacity:1;" d="M 43.242188 23.09375 C 44.707031 22.066406 45.675781 20.355469 45.675781 18.425781 C 45.675781 15.269531 43.125 12.71875 39.96875 12.71875 C 36.8125 12.71875 34.261719 15.269531 34.261719 18.425781 C 34.261719 20.355469 35.21875 22.066406 36.695312 23.09375 C 35.4375 23.53125 34.289062 24.203125 33.320312 25.074219 C 31.984375 23.9375 30.410156 23.066406 28.691406 22.550781 C 30.777344 21.285156 32.183594 18.980469 32.183594 16.359375 C 32.183594 12.363281 28.949219 9.125 24.949219 9.125 C 20.953125 9.125 17.71875 12.371094 17.71875 16.359375 C 17.71875 18.980469 19.113281 21.285156 21.210938 22.550781 C 19.507812 23.066406 17.957031 23.925781 16.628906 25.042969 C 15.660156 24.195312 14.53125 23.53125 13.296875 23.105469 C 14.761719 22.078125 15.730469 20.363281 15.730469 18.4375 C 15.730469 15.28125 13.175781 12.726562 10.023438 12.726562 C 6.867188 12.726562 4.3125 15.28125 4.3125 18.4375 C 4.3125 20.363281 5.273438 22.078125 6.746094 23.105469 C 2.820312 24.460938 0 28.191406 0 32.574219 L 0 33.226562 C 0 33.246094 0.0195312 33.265625 0.0390625 33.265625 L 12.140625 33.265625 C 12.070312 33.808594 12.03125 34.375 12.03125 34.9375 L 12.03125 35.609375 C 12.03125 38.519531 14.382812 40.875 17.292969 40.875 L 32.628906 40.875 C 35.535156 40.875 37.890625 38.519531 37.890625 35.609375 L 37.890625 34.9375 C 37.890625 34.375 37.851562 33.808594 37.78125 33.265625 L 49.960938 33.265625 C 49.980469 33.265625 50 33.246094 50 33.226562 L 50 32.574219 C 49.980469 28.179688 47.171875 24.449219 43.242188 23.09375 Z M 35.84375 18.417969 C 35.84375 16.140625 37.691406 14.289062 39.96875 14.289062 C 42.242188 14.289062 44.09375 16.140625 44.09375 18.417969 C 44.09375 20.660156 42.285156 22.492188 40.046875 22.542969 C 40.019531 22.542969 39.996094 22.542969 39.96875 22.542969 C 39.9375 22.542969 39.917969 22.542969 39.890625 22.542969 C 37.644531 22.503906 35.84375 20.671875 35.84375 18.417969 Z M 19.28125 16.359375 C 19.28125 13.242188 21.8125 10.710938 24.929688 10.710938 C 28.046875 10.710938 30.578125 13.242188 30.578125 16.359375 C 30.578125 19.367188 28.214844 21.828125 25.257812 21.996094 C 25.148438 21.996094 25.039062 21.996094 24.929688 21.996094 C 24.820312 21.996094 24.714844 21.996094 24.605469 21.996094 C 21.644531 21.828125 19.28125 19.367188 19.28125 16.359375 Z M 5.867188 18.417969 C 5.867188 16.140625 7.714844 14.289062 9.992188 14.289062 C 12.265625 14.289062 14.117188 16.140625 14.117188 18.417969 C 14.117188 20.660156 12.308594 22.492188 10.070312 22.542969 C 10.042969 22.542969 10.023438 22.542969 9.992188 22.542969 C 9.960938 22.542969 9.941406 22.542969 9.914062 22.542969 C 7.675781 22.503906 5.867188 20.671875 5.867188 18.417969 Z M 12.414062 31.671875 L 1.601562 31.671875 C 2.046875 27.457031 5.609375 24.152344 9.933594 24.125 C 9.953125 24.125 9.972656 24.125 9.992188 24.125 C 10.011719 24.125 10.03125 24.125 10.050781 24.125 C 12.109375 24.132812 13.988281 24.894531 15.441406 26.132812 C 14.019531 27.675781 12.960938 29.574219 12.414062 31.671875 Z M 36.289062 35.609375 C 36.289062 37.636719 34.636719 39.289062 32.609375 39.289062 L 17.273438 39.289062 C 15.246094 39.289062 13.59375 37.636719 13.59375 35.609375 L 13.59375 34.9375 C 13.59375 28.792969 18.5 23.769531 24.605469 23.589844 C 24.714844 23.601562 24.832031 23.601562 24.941406 23.601562 C 25.050781 23.601562 25.167969 23.601562 25.277344 23.589844 C 31.382812 23.769531 36.289062 28.792969 36.289062 34.9375 Z M 37.464844 31.671875 C 36.921875 29.585938 35.882812 27.714844 34.46875 26.171875 C 35.933594 24.90625 37.832031 24.144531 39.910156 24.125 C 39.929688 24.125 39.949219 24.125 39.96875 24.125 C 39.988281 24.125 40.007812 24.125 40.027344 24.125 C 44.351562 24.152344 47.914062 27.457031 48.359375 31.671875 Z M 37.464844 31.671875 "/>
</g>
</svg>
