<?xml version="1.0" encoding="UTF-8"?>
<svg xmlns="http://www.w3.org/2000/svg" xmlns:xlink="http://www.w3.org/1999/xlink" width="21pt" height="21pt" viewBox="0 0 21 21" version="1.1">
<g id="surface1">
<path style=" stroke:none;fill-rule:nonzero;fill:rgb(72.54902%,72.54902%,72.54902%);fill-opacity:1;" d="M 20.476562 9.132812 C 20.472656 9.132812 20.472656 9.132812 20.472656 9.132812 L 11.90625 0.566406 C 11.542969 0.199219 11.054688 0 10.539062 0 C 10.023438 0 9.539062 0.199219 9.171875 0.566406 L 0.609375 9.128906 C 0.609375 9.132812 0.605469 9.132812 0.601562 9.136719 C -0.148438 9.890625 -0.144531 11.113281 0.605469 11.867188 C 0.949219 12.210938 1.402344 12.410156 1.890625 12.429688 C 1.910156 12.433594 1.929688 12.433594 1.949219 12.433594 L 2.289062 12.433594 L 2.289062 18.738281 C 2.289062 19.984375 3.304688 21 4.550781 21 L 7.902344 21 C 8.242188 21 8.519531 20.722656 8.519531 20.386719 L 8.519531 15.441406 C 8.519531 14.875 8.980469 14.410156 9.550781 14.410156 L 11.527344 14.410156 C 12.097656 14.410156 12.5625 14.875 12.5625 15.441406 L 12.5625 20.386719 C 12.5625 20.722656 12.835938 21 13.175781 21 L 16.527344 21 C 17.773438 21 18.789062 19.984375 18.789062 18.738281 L 18.789062 12.433594 L 19.105469 12.433594 C 19.621094 12.433594 20.109375 12.234375 20.472656 11.867188 C 21.226562 11.113281 21.226562 9.886719 20.476562 9.132812 Z M 19.605469 10.996094 C 19.472656 11.128906 19.292969 11.203125 19.105469 11.203125 L 18.175781 11.203125 C 17.835938 11.203125 17.558594 11.476562 17.558594 11.816406 L 17.558594 18.738281 C 17.558594 19.304688 17.097656 19.769531 16.527344 19.769531 L 13.792969 19.769531 L 13.792969 15.441406 C 13.792969 14.195312 12.777344 13.179688 11.527344 13.179688 L 9.550781 13.179688 C 8.304688 13.179688 7.289062 14.195312 7.289062 15.441406 L 7.289062 19.769531 L 4.550781 19.769531 C 3.984375 19.769531 3.519531 19.304688 3.519531 18.738281 L 3.519531 11.816406 C 3.519531 11.476562 3.246094 11.203125 2.90625 11.203125 L 1.988281 11.203125 C 1.980469 11.203125 1.96875 11.203125 1.960938 11.203125 C 1.777344 11.199219 1.605469 11.125 1.476562 10.996094 C 1.203125 10.722656 1.203125 10.277344 1.476562 10.003906 L 10.042969 1.4375 C 10.175781 1.304688 10.351562 1.230469 10.539062 1.230469 C 10.726562 1.230469 10.902344 1.304688 11.035156 1.4375 L 19.601562 10 C 19.601562 10 19.605469 10.003906 19.605469 10.003906 C 19.878906 10.277344 19.878906 10.722656 19.605469 10.996094 Z M 19.605469 10.996094 "/>
</g>
</svg>
