<?xml version="1.0" encoding="utf-8"?>
<svg viewBox="0 0 46 64" style="enable-background:new 0 0 512 512" xmlns="http://www.w3.org/2000/svg">
  <g transform="matrix(0.119861, 0, 0, 0.119861, -7.969122, 1.256318)">
    <g xmlns="http://www.w3.org/2000/svg">
      <path d="m409.247 344.772-2.183-1.976c-3.071-2.778-7.814-2.544-10.594.527s-2.543 7.814.527 10.594l2.184 1.977c5.516 4.99 8.679 12.117 8.679 19.555v51.278h-40.372v-23.137c0-4.143-3.357-7.5-7.5-7.5s-7.5 3.357-7.5 7.5v93.41h-58.413c1.63-3.417 2.545-7.238 2.545-11.27v-17.83c0-14.485-11.785-26.271-26.271-26.271h-18.151v-12.354c0-7.124-5.796-12.92-12.92-12.92h-6.802l-18.025-96.177h11.011c2.941 18.59 19.073 32.851 38.477 32.851 19.409 0 35.545-14.261 38.487-32.851h47.243c6.473 0 12.675 2.39 17.474 6.736l3.92 3.54c3.074 2.775 7.816 2.535 10.593-.54 2.776-3.074 2.534-7.816-.54-10.593l-3.911-3.532c-7.555-6.843-17.333-10.611-27.535-10.611h-46.76v-17.517c25.472-.143 46.291-20.287 47.511-45.493h16.799c16.354 0 29.66-13.306 29.66-29.66 0-8.645-3.719-16.436-9.64-21.862 0-3.064-.002-66.831-.002-85.438 0-17.223-4.16-33.492-11.527-47.856-.183-.44-.403-.858-.66-1.249-17.739-33.468-52.887-56.103-93.023-56.103h-36.17c-36.306 0-68.375 18.487-87.292 46.54-2.44 2.971-10.054 17.293-11.642 22.869-4.059 11.18-6.276 23.236-6.276 35.801v14.815c0 .015.002.029.002.044v70.578c-5.921 5.426-9.641 13.218-9.641 21.863 0 16.354 13.306 29.66 29.66 29.66h16.8c1.22 25.207 22.04 45.351 47.511 45.493v17.517h-46.77c-10.19 0-19.968 3.768-27.531 10.607l-32.043 28.983c-8.646 7.83-13.605 19.012-13.605 30.68v40.906h-2.971c-7.124 0-12.92 5.796-12.92 12.92v38.142c0 24.583 20 44.582 44.583 44.582h35.36c4.143 0 7.5-3.357 7.5-7.5s-3.357-7.5-7.5-7.5h-35.36c-16.313 0-29.583-13.271-29.583-29.582v-36.062h133.059v63.11c0 1.396-1.137 2.533-2.533 2.533h-30.582c-4.143 0-7.5 3.357-7.5 7.5s3.357 7.5 7.5 7.5h208.909c5.441 0 9.868-4.427 9.868-9.868v-126.682c-.001-11.668-4.963-22.849-13.614-30.677zm-121.337-30.702c0 13.212-10.753 23.96-23.97 23.96-13.212 0-23.96-10.748-23.96-23.96v-26.4h47.93zm-132.262-200.309c.269-5.526-1.174-17.405 3.584-33.743l213.006 38.555v34.396zm216.566-10.436-99.687-18.043 91.955-16.648c4.741 10.644 7.478 22.367 7.732 34.691zm-4.994 123.845h-16.74v-29.32h16.739c8.084 0 14.66 6.576 14.66 14.66s-6.575 14.66-14.659 14.66zm0-44.32h-16.74v-18.576l21.76 3.939v15.07c-1.633-.28-3.309-.433-5.02-.433zm-10.427-128.068-126.369 22.879-65.686-11.889c1.286-2.635 2.698-5.199 4.226-7.683l161.139-29.177c10.581 6.69 19.683 15.515 26.69 25.87zm-74.765-39.782c8.132 0 16.014 1.088 23.515 3.115l-122.204 22.127c16.227-15.621 38.27-25.242 62.519-25.242zm-126.378 114.005 41.096 7.439c-2.719 1.246-5.483 2.424-8.298 3.514-6.603 2.56-11.038 9.075-11.038 16.212v26.68h-16.74c-1.711 0-3.387.154-5.02.434zm-9.64 83.505c0-8.084 6.576-14.66 14.66-14.66h16.74v29.32h-16.74c-8.084 0-14.66-6.576-14.66-14.66zm46.4 27.32v-83.66c0-.993.587-1.888 1.457-2.226 9.364-3.624 18.291-8.066 26.592-13.208l115.022 20.822v78.271c0 18.108-14.732 32.84-32.841 32.84h-77.39c-18.108.001-32.84-14.731-32.84-32.839zm-72.38 135.62c0-7.439 3.161-14.569 8.671-19.558l32.039-28.98c4.801-4.342 11.005-6.732 17.47-6.732h20.979l18.025 96.177h-41.814v-12.767c0-4.143-3.357-7.5-7.5-7.5s-7.5 3.357-7.5 7.5v12.767h-40.37zm131.964 121.55c.121-.83.204-1.671.204-2.533v-37.837h18.151c6.215 0 11.271 5.056 11.271 11.271v17.83c0 6.214-5.056 11.27-11.271 11.27h-18.355zm115.494 0v-55.272h40.372v55.272z" fill="#6c6c6c" data-original="#000000" style="" class=""/>
      <path d="m238.999 187.962c-1.5-3.861-5.846-5.776-9.706-4.278-4.671 1.813-9.211 1.813-13.882 0-3.862-1.498-8.207.417-9.706 4.278-1.498 3.861.417 8.207 4.278 9.706 8.158 3.167 16.48 3.203 24.737 0 3.862-1.499 5.777-5.845 4.279-9.706z" fill="#6c6c6c" data-original="#000000" style="" class=""/>
      <path d="m293.167 197.668c8.158 3.167 16.479 3.203 24.736 0 3.861-1.499 5.776-5.845 4.278-9.706-1.5-3.861-5.846-5.776-9.706-4.278-4.67 1.814-9.211 1.813-13.881 0-3.86-1.498-8.206.417-9.706 4.278-1.497 3.861.418 8.207 4.279 9.706z" fill="#6c6c6c" data-original="#000000" style="" class=""/>
    </g>
  </g>
</svg>