<?xml version="1.0" encoding="UTF-8"?>
<svg xmlns="http://www.w3.org/2000/svg" xmlns:xlink="http://www.w3.org/1999/xlink" width="40pt" height="40pt" viewBox="0 0 40 40" version="1.1">
<g id="surface1">
<path style=" stroke:none;fill-rule:nonzero;fill:rgb(78.039216%,78.039216%,78.039216%);fill-opacity:1;" d="M 20 40 C 8.972656 40 0 31.027344 0 20 C 0 8.972656 8.972656 0 20 0 C 31.027344 0 40 8.972656 40 20 C 40 31.027344 31.027344 40 20 40 Z M 20 2.5 C 10.351562 2.5 2.5 10.351562 2.5 20 C 2.5 29.648438 10.351562 37.5 20 37.5 C 29.648438 37.5 37.5 29.648438 37.5 20 C 37.5 10.351562 29.648438 2.5 20 2.5 Z M 20 2.5 "/>
<path style=" stroke:none;fill-rule:nonzero;fill:rgb(78.039216%,78.039216%,78.039216%);fill-opacity:1;" d="M 28.75 21.25 L 11.25 21.25 C 10.558594 21.25 10 20.691406 10 20 C 10 19.308594 10.558594 18.75 11.25 18.75 L 28.75 18.75 C 29.441406 18.75 30 19.308594 30 20 C 30 20.691406 29.441406 21.25 28.75 21.25 Z M 28.75 21.25 "/>
<path style=" stroke:none;fill-rule:nonzero;fill:rgb(78.039216%,78.039216%,78.039216%);fill-opacity:1;" d="M 20 30 C 19.308594 30 18.75 29.441406 18.75 28.75 L 18.75 11.25 C 18.75 10.558594 19.308594 10 20 10 C 20.691406 10 21.25 10.558594 21.25 11.25 L 21.25 28.75 C 21.25 29.441406 20.691406 30 20 30 Z M 20 30 "/>
</g>
</svg>
