<?xml version="1.0"?>
<svg xmlns="http://www.w3.org/2000/svg" xmlns:xlink="http://www.w3.org/1999/xlink" xmlns:svgjs="http://svgjs.com/svgjs" version="1.1" width="512" height="512" x="0" y="0" viewBox="0 0 512 512" style="enable-background:new 0 0 512 512" xml:space="preserve" class=""><g><g xmlns="http://www.w3.org/2000/svg"><path d="m431 121.78v266.44c0 23.04-18.74 41.78-41.78 41.78h-266.44c-23.04 0-41.78-18.74-41.78-41.78v-266.44c0-23.04 18.74-41.78 41.78-41.78h266.44c23.04 0 41.78 18.74 41.78 41.78z" fill="#00acee" data-original="#ecf9fd" style="" class=""/><path d="m431 121.78v266.44c0 23.04-18.74 41.78-41.78 41.78h-133.22v-350h133.22c23.04 0 41.78 18.74 41.78 41.78z" fill="#d9f3fc" data-original="#d9f3fc" style="" class=""/><path d="m496 271h-480c-19.844 0-19.85-30 0-30h480c19.844 0 19.85 30 0 30z" fill="#d9f3fc" data-original="#58b354" style="" class=""/><path d="m496 271h-240v-30h240c19.844 0 19.85 30 0 30z" fill="#00acee" data-original="#00a963" style="" class=""/><path d="m482 127v-71.659c0-13.973-11.368-25.341-25.34-25.341h-71.66c-19.832 0-19.86-30 0-30h71.66c30.514 0 55.34 24.826 55.34 55.341v71.659c0 19.832-30 19.86-30 0z" fill="#001737" data-original="#001737" style="" class=""/><path d="m456.66 512h-71.66c-19.832 0-19.86-30 0-30h71.66c13.973 0 25.34-11.368 25.34-25.341v-71.659c0-19.832 30-19.86 30 0v71.659c0 30.515-24.826 55.341-55.34 55.341z" fill="#001737" data-original="#001737" style="" class=""/><path d="m0 127v-71.659c0-30.515 24.826-55.341 55.34-55.341h71.66c19.832 0 19.86 30 0 30h-71.66c-13.972 0-25.34 11.368-25.34 25.341v71.659c0 19.832-30 19.86-30 0z" fill="#00357b" data-original="#00357b" style="" class=""/><path d="m127 512h-71.66c-30.514 0-55.34-24.826-55.34-55.341v-71.659c0-19.832 30-19.86 30 0v71.659c0 13.973 11.368 25.341 25.34 25.341h71.66c19.832 0 19.86 30 0 30z" fill="#00357b" data-original="#00357b" style="" class=""/><path d="m389.218 430h-47.575c-19.832 0-19.86-30 0-30h47.575c6.497 0 11.782-5.285 11.782-11.782v-47.574c0-19.832 30-19.86 30 0v47.574c0 23.039-18.744 41.782-41.782 41.782z" fill="#001737" data-original="#001737" style="" class=""/><path d="m401 169.356v-47.574c0-6.497-5.286-11.782-11.782-11.782h-47.575c-19.832 0-19.86-30 0-30h47.575c23.038 0 41.782 18.743 41.782 41.782v47.574c0 19.832-30 19.86-30 0z" fill="#001737" data-original="#001737" style="" class=""/><g fill="#00357b"><path d="m81 169.356v-47.574c0-23.039 18.744-41.782 41.782-41.782h47.575c19.832 0 19.86 30 0 30h-47.575c-6.497 0-11.782 5.285-11.782 11.782v47.574c0 19.832-30 19.86-30 0z" fill="#00357b" data-original="#00357b" style="" class=""/><path d="m170.357 430h-47.575c-23.038 0-41.782-18.743-41.782-41.782v-47.574c0-19.832 30-19.86 30 0v47.574c0 6.497 5.286 11.782 11.782 11.782h47.575c19.832 0 19.86 30 0 30z" fill="#00357b" data-original="#00357b" style="" class=""/></g></g></g></svg>
