<?xml version="1.0" encoding="UTF-8"?>
<svg xmlns="http://www.w3.org/2000/svg" xmlns:xlink="http://www.w3.org/1999/xlink" width="22pt" height="22pt" viewBox="0 0 22 22" version="1.1">
<g id="surface1">
<path style=" stroke:none;fill-rule:nonzero;fill:rgb(70.980392%,70.980392%,70.980392%);fill-opacity:1;" d="M 21.675781 15.722656 C 19.089844 13.132812 18.699219 11.835938 18.699219 7.699219 C 18.699219 3.449219 15.25 0 11 0 C 6.75 0 3.300781 3.449219 3.300781 7.699219 C 3.300781 9.929688 3.242188 10.761719 2.933594 11.785156 C 2.554688 13.058594 1.769531 14.277344 0.324219 15.722656 C -0.367188 16.414062 0.121094 17.601562 1.101562 17.601562 L 7.207031 17.601562 L 7.152344 18.148438 C 7.152344 20.277344 8.875 22 11 22 C 13.125 22 14.847656 20.277344 14.847656 18.148438 L 14.792969 17.601562 L 20.898438 17.601562 C 21.878906 17.601562 22.367188 16.414062 21.675781 15.722656 Z M 11 20.898438 C 9.480469 20.898438 8.25 19.667969 8.25 18.148438 L 8.304688 17.601562 L 13.695312 17.601562 L 13.75 18.148438 C 13.75 19.667969 12.519531 20.898438 11 20.898438 Z M 1.101562 16.5 C 4.402344 13.199219 4.402344 11 4.402344 7.699219 C 4.402344 4.054688 7.355469 1.101562 11 1.101562 C 14.644531 1.101562 17.597656 4.054688 17.597656 7.699219 C 17.597656 11 17.597656 13.199219 20.898438 16.5 Z M 1.101562 16.5 "/>
</g>
</svg>
