<?xml version="1.0" encoding="utf-8"?>
<svg viewBox="0 0 22.64 22.64" style="enable-background:new 0 0 512 512;" xmlns="http://www.w3.org/2000/svg">
  <g>
    <g>
      <path d="M 9.97 0 C 4.473 0 0 4.473 0 9.97 C 0 15.468 4.473 19.94 9.97 19.94 C 15.468 19.94 19.94 15.468 19.94 9.97 C 19.94 4.473 15.468 0 9.97 0 Z M 9.97 18.1 C 5.488 18.1 1.841 14.453 1.841 9.97 C 1.841 5.488 5.488 1.841 9.97 1.841 C 14.453 1.841 18.1 5.488 18.1 9.97 C 18.1 14.453 14.453 18.1 9.97 18.1 Z"/>
    </g>
  </g>
  <g transform="matrix(0.044219, 0, 0, 0.044219, 0, 0)">
    <g>
      <path d="M505.902,476.472L386.574,357.144c-8.131-8.131-21.299-8.131-29.43,0c-8.131,8.124-8.131,21.306,0,29.43l119.328,119.328 c4.065,4.065,9.387,6.098,14.715,6.098c5.321,0,10.649-2.033,14.715-6.098C514.033,497.778,514.033,484.596,505.902,476.472z"/>
    </g>
  </g>
  <g/>
  <g/>
  <g/>
  <g/>
  <g/>
  <g/>
  <g/>
  <g/>
  <g/>
  <g/>
  <g/>
  <g/>
  <g/>
  <g/>
  <g/>
</svg>