<?xml version="1.0" encoding="UTF-8"?>
<svg xmlns="http://www.w3.org/2000/svg" xmlns:xlink="http://www.w3.org/1999/xlink" width="22pt" height="22pt" viewBox="0 0 22 22" version="1.1">
<g id="surface1">
<path style=" stroke:none;fill-rule:nonzero;fill:rgb(67.058824%,67.058824%,67.058824%);fill-opacity:1;" d="M 4.703125 3.828125 L 0.648438 3.828125 C 0.289062 3.828125 0 3.539062 0 3.179688 C 0 2.824219 0.289062 2.535156 0.648438 2.535156 L 4.703125 2.535156 C 5.058594 2.535156 5.347656 2.824219 5.347656 3.179688 C 5.347656 3.539062 5.058594 3.828125 4.703125 3.828125 Z M 4.703125 3.828125 "/>
<path style=" stroke:none;fill-rule:nonzero;fill:rgb(67.058824%,67.058824%,67.058824%);fill-opacity:1;" d="M 7.019531 6.144531 C 5.382812 6.144531 4.054688 4.816406 4.054688 3.179688 C 4.054688 1.546875 5.382812 0.21875 7.019531 0.21875 C 8.652344 0.21875 9.980469 1.546875 9.980469 3.179688 C 9.980469 4.816406 8.652344 6.144531 7.019531 6.144531 Z M 7.019531 1.511719 C 6.097656 1.511719 5.347656 2.261719 5.347656 3.179688 C 5.347656 4.101562 6.097656 4.851562 7.019531 4.851562 C 7.9375 4.851562 8.6875 4.101562 8.6875 3.179688 C 8.6875 2.261719 7.9375 1.511719 7.019531 1.511719 Z M 7.019531 1.511719 "/>
<path style=" stroke:none;fill-rule:nonzero;fill:rgb(67.058824%,67.058824%,67.058824%);fill-opacity:1;" d="M 21.351562 3.828125 L 11.683594 3.828125 C 11.324219 3.828125 11.035156 3.539062 11.035156 3.179688 C 11.035156 2.824219 11.324219 2.535156 11.683594 2.535156 L 21.351562 2.535156 C 21.710938 2.535156 22 2.824219 22 3.179688 C 22 3.539062 21.710938 3.828125 21.351562 3.828125 Z M 21.351562 3.828125 "/>
<path style=" stroke:none;fill-rule:nonzero;fill:rgb(67.058824%,67.058824%,67.058824%);fill-opacity:1;" d="M 15.707031 13.964844 C 14.070312 13.964844 12.742188 12.632812 12.742188 11 C 12.742188 9.367188 14.070312 8.035156 15.707031 8.035156 C 17.339844 8.035156 18.667969 9.367188 18.667969 11 C 18.667969 12.632812 17.339844 13.964844 15.707031 13.964844 Z M 15.707031 9.332031 C 14.785156 9.332031 14.035156 10.078125 14.035156 11 C 14.035156 11.921875 14.785156 12.667969 15.707031 12.667969 C 16.625 12.667969 17.375 11.921875 17.375 11 C 17.375 10.078125 16.625 9.332031 15.707031 9.332031 Z M 15.707031 9.332031 "/>
<path style=" stroke:none;fill-rule:nonzero;fill:rgb(67.058824%,67.058824%,67.058824%);fill-opacity:1;" d="M 11.042969 11.648438 L 0.648438 11.648438 C 0.289062 11.648438 0 11.355469 0 11 C 0 10.644531 0.289062 10.351562 0.648438 10.351562 L 11.042969 10.351562 C 11.398438 10.351562 11.6875 10.644531 11.6875 11 C 11.6875 11.355469 11.398438 11.648438 11.042969 11.648438 Z M 11.042969 11.648438 "/>
<path style=" stroke:none;fill-rule:nonzero;fill:rgb(67.058824%,67.058824%,67.058824%);fill-opacity:1;" d="M 21.351562 11.648438 L 18.023438 11.648438 C 17.664062 11.648438 17.375 11.355469 17.375 11 C 17.375 10.644531 17.664062 10.351562 18.023438 10.351562 L 21.351562 10.351562 C 21.710938 10.351562 22 10.644531 22 11 C 22 11.355469 21.710938 11.648438 21.351562 11.648438 Z M 21.351562 11.648438 "/>
<path style=" stroke:none;fill-rule:nonzero;fill:rgb(67.058824%,67.058824%,67.058824%);fill-opacity:1;" d="M 6.292969 21.78125 C 4.660156 21.78125 3.332031 20.453125 3.332031 18.820312 C 3.332031 17.183594 4.660156 15.855469 6.292969 15.855469 C 7.929688 15.855469 9.257812 17.183594 9.257812 18.820312 C 9.257812 20.453125 7.929688 21.78125 6.292969 21.78125 Z M 6.292969 17.148438 C 5.375 17.148438 4.625 17.898438 4.625 18.820312 C 4.625 19.738281 5.375 20.488281 6.292969 20.488281 C 7.214844 20.488281 7.964844 19.738281 7.964844 18.820312 C 7.964844 17.898438 7.214844 17.148438 6.292969 17.148438 Z M 6.292969 17.148438 "/>
<path style=" stroke:none;fill-rule:nonzero;fill:rgb(67.058824%,67.058824%,67.058824%);fill-opacity:1;" d="M 21.351562 19.464844 L 10.957031 19.464844 C 10.601562 19.464844 10.3125 19.175781 10.3125 18.820312 C 10.3125 18.460938 10.601562 18.171875 10.957031 18.171875 L 21.351562 18.171875 C 21.710938 18.171875 22 18.460938 22 18.820312 C 22 19.175781 21.710938 19.464844 21.351562 19.464844 Z M 21.351562 19.464844 "/>
<path style=" stroke:none;fill-rule:nonzero;fill:rgb(67.058824%,67.058824%,67.058824%);fill-opacity:1;" d="M 3.976562 19.464844 L 0.648438 19.464844 C 0.289062 19.464844 0 19.175781 0 18.820312 C 0 18.460938 0.289062 18.171875 0.648438 18.171875 L 3.976562 18.171875 C 4.335938 18.171875 4.625 18.460938 4.625 18.820312 C 4.625 19.175781 4.335938 19.464844 3.976562 19.464844 Z M 3.976562 19.464844 "/>
</g>
</svg>
